<?xml version="1.0" encoding="UTF-8" standalone="no"?>
<!DOCTYPE svg PUBLIC "-//W3C//DTD SVG 1.1//EN"
 "http://www.w3.org/Graphics/SVG/1.1/DTD/svg11.dtd">
<!-- Generated by graphviz version 2.36.0 (20140111.2315)
 -->
<!-- Title: G Pages: 1 -->
<svg width="233pt" height="65pt"
 viewBox="0.00 0.00 233.20 65.20" xmlns="http://www.w3.org/2000/svg" xmlns:xlink="http://www.w3.org/1999/xlink">
<g id="graph0" class="graph" transform="scale(1 1) rotate(0) translate(21.6 43.6)">
<title>G</title>
<polygon fill="#111111" stroke="none" points="-21.6,21.6 -21.6,-43.6 211.6,-43.6 211.6,21.6 -21.6,21.6"/>
<!-- index.js -->
<g id="node1" class="node"><title>index.js</title>
<path fill="none" stroke="#c6c5fe" d="M56.3333,-22.5C56.3333,-22.5 7.66667,-22.5 7.66667,-22.5 3.83333,-22.5 0,-18.6667 0,-14.8333 0,-14.8333 0,-7.16667 0,-7.16667 0,-3.33333 3.83333,0.5 7.66667,0.5 7.66667,0.5 56.3333,0.5 56.3333,0.5 60.1667,0.5 64,-3.33333 64,-7.16667 64,-7.16667 64,-14.8333 64,-14.8333 64,-18.6667 60.1667,-22.5 56.3333,-22.5"/>
<text text-anchor="middle" x="32" y="-7.3" font-family="Arial" font-size="14.00" fill="#c6c5fe">index.js</text>
</g>
<!-- lib/spawn.js -->
<g id="node2" class="node"><title>lib/spawn.js</title>
<path fill="none" stroke="#cfffac" d="M181.833,-22.5C181.833,-22.5 108.167,-22.5 108.167,-22.5 104.333,-22.5 100.5,-18.6667 100.5,-14.8333 100.5,-14.8333 100.5,-7.16667 100.5,-7.16667 100.5,-3.33333 104.333,0.5 108.167,0.5 108.167,0.5 181.833,0.5 181.833,0.5 185.667,0.5 189.5,-3.33333 189.5,-7.16667 189.5,-7.16667 189.5,-14.8333 189.5,-14.8333 189.5,-18.6667 185.667,-22.5 181.833,-22.5"/>
<text text-anchor="middle" x="145" y="-7.3" font-family="Arial" font-size="14.00" fill="#cfffac">lib/spawn.js</text>
</g>
<!-- index.js&#45;&gt;lib/spawn.js -->
<g id="edge1" class="edge"><title>index.js&#45;&gt;lib/spawn.js</title>
<path fill="none" stroke="#757575" d="M64.2151,-11C72.2345,-11 81.0965,-11 89.911,-11"/>
<polygon fill="#757575" stroke="#757575" points="90.1834,-14.5001 100.183,-11 90.1834,-7.5001 90.1834,-14.5001"/>
</g>
</g>
</svg>
